<?xml version="1.0" encoding="UTF-8" ?>
<!DOCTYPE svg PUBLIC "-//W3C//DTD SVG 1.1//EN" "http://www.w3.org/Graphics/SVG/1.1/DTD/svg11.dtd">
<svg width="601pt" height="150pt" viewBox="0 0 601 150" version="1.1" xmlns="http://www.w3.org/2000/svg">
<path fill="#000000" stroke="#000000" stroke-width="0.09375" d=" M 186.4 37.6 C 191.9 38.0 197.6 39.4 201.8 43.2 C 205.9 46.8 207.5 52.3 208.0 57.6 C 203.3 57.9 198.7 58.3 194.0 58.6 C 193.6 56.3 193.6 53.8 192.3 51.7 C 191.0 49.8 188.5 49.6 186.4 49.1 C 186.4 45.3 186.4 41.4 186.4 37.6 Z" />
<path fill="#000000" stroke="#000000" stroke-width="0.09375" d=" M 239.3 37.3 C 246.8 38.1 254.7 40.5 259.7 46.4 C 266.1 54.0 267.6 64.4 266.9 74.0 C 266.2 83.6 262.5 93.7 254.2 99.3 C 249.9 102.4 244.5 103.2 239.3 103.2 C 239.3 99.2 239.3 95.3 239.3 91.3 C 243.1 90.4 247.2 88.9 249.3 85.4 C 252.3 80.5 252.2 74.6 252.2 69.0 C 252.0 63.6 251.9 57.4 247.9 53.1 C 245.7 50.7 242.4 49.9 239.3 49.4 C 239.3 45.4 239.3 41.4 239.3 37.3 Z" />
<path fill="#000000" stroke="#000000" stroke-width="0.09375" d=" M 165.3 43.2 C 169.7 38.7 176.5 37.7 182.5 37.6 C 182.6 41.3 182.5 45.1 182.6 48.8 C 180.5 49.2 178.2 49.1 176.6 50.7 C 174.2 53.0 174.2 57.9 177.4 59.6 C 184.8 63.6 193.6 63.9 200.8 68.1 C 209.3 73.3 211.5 85.9 206.0 94.0 C 201.7 100.4 193.8 103.2 186.4 103.6 C 186.4 99.7 186.4 95.7 186.4 91.8 C 189.8 91.5 194.1 90.1 194.4 86.0 C 195.3 81.9 191.6 79.0 188.0 78.0 C 184.5 77.1 181.2 75.2 177.6 74.6 C 171.3 73.0 164.2 70.1 161.7 63.6 C 159.4 56.9 160.2 48.5 165.3 43.2 Z" />
<path fill="#000000" stroke="#000000" stroke-width="0.09375" d=" M 218.3 44.3 C 223.1 39.7 229.9 37.6 236.5 37.3 C 236.5 41.3 236.5 45.3 236.5 49.3 C 233.5 49.9 230.3 50.9 228.3 53.3 C 224.1 57.7 223.8 64.2 223.7 70.0 C 223.7 75.2 223.7 80.8 226.6 85.3 C 228.8 88.7 232.8 90.2 236.5 91.2 C 236.5 95.2 236.5 99.2 236.4 103.1 C 229.7 103.3 222.6 101.1 217.9 96.2 C 211.0 89.4 208.8 79.4 208.8 70.0 C 208.9 60.8 211.3 50.8 218.3 44.3 Z" />
<path fill="#000000" stroke="#000000" stroke-width="0.09375" d=" M 41.5 39.0 C 46.2 39.0 50.9 39.0 55.7 39.0 C 55.6 60.0 55.6 81.0 55.7 102.0 C 50.9 102.0 46.2 102.0 41.5 102.0 C 41.5 81.0 41.5 60.0 41.5 39.0 Z" />
<path fill="#000000" stroke="#000000" stroke-width="0.09375" d=" M 57.5 39.0 C 64.6 39.3 72.7 37.8 79.0 42.1 C 84.6 46.1 85.2 53.7 85.2 60.0 C 85.2 66.2 84.1 73.6 78.4 77.3 C 72.1 81.0 64.5 79.9 57.5 80.1 C 57.5 76.3 57.5 72.5 57.5 68.7 C 61.3 68.4 65.8 69.6 69.1 67.1 C 71.8 63.4 71.3 58.1 70.0 54.1 C 67.7 49.4 61.7 50.7 57.5 50.5 C 57.5 46.7 57.5 42.9 57.5 39.0 Z" />
<path fill="#000000" stroke="#000000" stroke-width="0.09375" d=" M 87.1 38.9 C 91.9 38.9 96.6 38.9 101.3 38.9 C 101.3 59.9 101.3 81.0 101.3 102.0 C 96.6 102.0 91.9 102.0 87.1 102.0 C 87.2 81.0 87.1 59.9 87.1 38.9 Z" />
<path fill="#000000" stroke="#000000" stroke-width="0.09375" d=" M 103.1 38.9 C 110.5 39.1 118.4 38.2 125.2 41.8 C 131.6 45.9 132.8 54.7 131.2 61.5 C 129.8 66.3 126.2 71.2 120.8 71.7 C 123.0 72.5 125.2 73.5 126.4 75.6 C 129.6 80.6 129.6 86.8 130.8 92.5 C 131.5 95.9 133.0 99.0 134.7 102.0 C 129.7 102.0 124.8 101.9 119.9 102.1 C 117.4 97.7 116.4 92.8 115.9 87.9 C 115.6 84.9 114.5 81.7 111.8 80.2 C 109.1 78.8 106.0 78.9 103.0 78.7 C 103.1 75.0 103.1 71.2 103.2 67.4 C 107.1 67.4 111.1 68.0 114.8 66.8 C 117.7 65.5 117.9 61.8 118.0 59.0 C 118.0 56.3 117.9 52.5 114.9 51.3 C 111.1 50.2 107.0 50.9 103.1 50.9 C 103.1 46.9 103.1 42.9 103.1 38.9 Z" />
<path fill="#000000" stroke="#000000" stroke-width="0.09375" d=" M 138.7 39.0 C 143.4 39.0 148.1 39.0 152.8 39.0 C 152.8 60.0 152.8 81.0 152.8 102.0 C 148.1 102.0 143.4 102.0 138.7 102.0 C 138.7 81.0 138.7 60.0 138.7 39.0 Z" />
<path fill="#000000" stroke="#000000" stroke-width="0.09375" d=" M 270.8 40.1 C 275.2 40.1 279.6 40.1 284.1 40.1 C 296.7 61.1 309.3 82.0 321.9 103.0 C 317.4 103.0 312.9 103.0 308.4 103.0 C 295.8 82.0 283.3 61.1 270.8 40.1 Z" />
<path fill="#000000" stroke="#000000" stroke-width="0.09375" d=" M 307.6 40.0 C 312.3 40.0 317.0 40.0 321.7 40.0 C 321.9 59.6 321.8 79.2 321.8 98.8 C 317.6 91.8 313.4 84.8 309.1 77.8 C 308.4 76.7 308.1 75.4 308.1 74.0 C 308.0 62.7 307.6 51.3 307.6 40.0 Z" />
<path fill="#000000" stroke="#000000" stroke-width="0.09375" d=" M 270.6 43.8 C 274.8 50.9 279.0 57.9 283.2 65.0 C 284.0 66.2 284.2 67.6 284.2 69.0 C 284.3 80.3 284.7 91.7 284.7 103.0 C 280.0 103.0 275.3 103.0 270.6 103.0 C 270.5 83.3 270.6 63.6 270.6 43.8 Z" />
<path fill="#000000" stroke="#000000" stroke-width="0.09375" d=" M 323.9 50.9 C 331.9 50.9 340.7 50.5 347.6 55.3 C 352.7 58.9 353.7 65.9 352.2 71.5 C 351.1 75.5 347.5 78.0 344.2 80.2 C 347.7 82.0 351.2 84.4 353.0 88.1 C 356.8 96.2 353.4 107.3 345.1 111.2 C 338.6 114.6 331.1 113.9 324.0 114.0 C 324.0 110.1 324.0 106.2 324.0 102.2 C 328.4 102.6 333.4 102.9 337.1 100.2 C 341.1 97.5 341.1 90.6 336.9 88.1 C 333.0 85.9 328.3 86.2 324.0 86.6 C 324.0 82.8 324.0 79.0 324.0 75.2 C 328.2 75.7 332.9 76.0 336.6 73.7 C 339.9 71.7 339.7 66.4 336.5 64.5 C 332.8 62.1 328.2 62.4 324.0 62.8 C 324.0 58.8 323.9 54.9 323.9 50.9 Z" />
<path fill="#000000" stroke="#000000" stroke-width="0.09375" d=" M 357.2 50.9 C 361.9 50.9 366.6 50.9 371.3 50.9 C 371.3 71.9 371.3 93.0 371.3 114.0 C 366.6 114.0 361.9 114.0 357.1 114.0 C 357.2 93.0 357.1 71.9 357.2 50.9 Z" />
<path fill="#000000" stroke="#000000" stroke-width="0.09375" d=" M 373.1 50.9 C 380.9 51.2 389.6 50.0 396.4 54.6 C 402.8 60.3 403.4 71.0 399.1 78.1 C 397.3 81.1 394.4 83.4 390.8 83.6 C 397.1 85.3 399.0 92.2 399.7 97.9 C 400.3 103.5 401.6 109.1 404.7 114.0 C 399.7 114.0 394.7 114.0 389.7 114.0 C 388.1 110.6 386.8 107.0 386.3 103.2 C 385.8 99.7 385.8 95.6 383.0 93.0 C 380.3 90.7 376.4 91.0 373.0 90.7 C 373.1 87.0 373.1 83.2 373.2 79.4 C 377.0 79.4 381.0 80.0 384.8 78.8 C 387.7 77.5 387.9 73.8 388.0 71.0 C 388.0 68.3 388.0 64.5 385.0 63.3 C 381.1 62.2 377.1 62.9 373.1 62.9 C 373.1 58.9 373.1 54.9 373.1 50.9 Z" />
<path fill="#000000" stroke="#000000" stroke-width="0.09375" d=" M 405.9 50.9 C 410.6 50.9 415.2 50.9 419.9 50.9 C 419.9 71.9 419.9 93.0 419.9 114.0 C 415.2 114.0 410.6 114.0 405.9 114.0 C 405.9 93.0 405.9 71.9 405.9 50.9 Z" />
<path fill="#000000" stroke="#000000" stroke-width="0.09375" d=" M 421.8 50.9 C 430.2 50.9 438.5 50.9 446.8 50.9 C 446.8 54.8 446.8 58.7 446.8 62.6 C 438.5 62.6 430.1 62.7 421.8 62.6 C 421.9 58.7 421.8 54.8 421.8 50.9 Z" />
<path fill="#000000" stroke="#000000" stroke-width="0.09375" d=" M 466.2 51.0 C 471.7 51.0 477.1 50.9 482.5 51.1 C 488.9 69.6 495.5 88.1 502.0 106.6 C 502.2 88.1 502.0 69.5 502.1 51.0 C 506.8 51.0 511.5 51.0 516.2 51.0 C 516.2 72.0 516.2 93.0 516.2 114.0 C 507.1 114.0 497.9 113.9 488.8 114.0 C 487.3 109.6 486.0 105.0 484.6 100.5 C 479.9 100.5 475.2 100.5 470.6 100.5 C 471.7 96.7 472.8 92.9 474.0 89.2 C 476.3 89.1 478.6 89.1 481.0 89.1 C 478.7 81.0 475.3 73.3 474.4 64.9 C 473.4 71.1 471.4 77.0 469.6 83.1 C 466.6 93.4 463.6 103.7 460.6 114.0 C 447.7 114.0 434.8 114.0 421.8 114.0 C 421.8 110.1 421.8 106.2 421.8 102.3 C 430.7 102.3 439.6 102.2 448.4 102.3 C 454.6 85.3 460.3 68.1 466.2 51.0 Z" />
<path fill="#000000" stroke="#000000" stroke-width="0.09375" d=" M 533.4 50.9 C 539.5 50.9 545.6 50.9 551.7 50.9 C 543.6 60.5 535.6 70.0 527.5 79.6 C 536.0 91.1 544.6 102.5 553.1 114.0 C 547.2 113.9 541.3 114.2 535.4 113.9 C 530.0 105.5 524.3 97.4 518.8 89.2 C 517.8 88.0 518.0 86.4 518.0 85.0 C 518.0 80.7 518.0 76.5 518.0 72.3 C 523.2 65.2 528.3 58.1 533.4 50.9 Z" />
<path fill="#000000" stroke="#000000" stroke-width="0.09375" d=" M 421.8 75.1 C 429.4 75.1 436.9 75.1 444.4 75.1 C 444.4 78.9 444.4 82.7 444.4 86.5 C 436.9 86.5 429.4 86.5 421.8 86.5 C 421.8 82.7 421.8 78.9 421.8 75.1 Z" />
<path fill="#000000" stroke="#000000" stroke-width="0.09375" d=" M 158.4 82.1 C 163.1 81.9 167.8 81.6 172.5 81.4 C 173.3 84.1 173.7 87.2 175.5 89.5 C 177.2 91.5 180.1 91.4 182.5 91.9 C 182.5 95.8 182.5 99.8 182.5 103.7 C 176.3 103.5 169.4 102.9 164.5 98.5 C 159.9 94.4 158.7 88.0 158.4 82.1 Z" />
</svg>
