<!DOCTYPE svg PUBLIC "-//W3C//DTD SVG 1.1//EN" "http://www.w3.org/Graphics/SVG/1.1/DTD/svg11.dtd">
<!-- Uploaded to: SVG Repo, www.svgrepo.com, Transformed by: SVG Repo Mixer Tools -->
<svg height="168px" width="168px" version="1.1" id="_x32_" xmlns="http://www.w3.org/2000/svg" xmlns:xlink="http://www.w3.org/1999/xlink" viewBox="0 0 512.00 512.00" xml:space="preserve" fill="#000000" stroke="#000000">
<g id="SVGRepo_bgCarrier" stroke-width="0"/>
<g id="SVGRepo_tracerCarrier" stroke-linecap="round" stroke-linejoin="round"/>
<g id="SVGRepo_iconCarrier"> <style type="text/css"> .st0{fill:#c03939;} </style> <g> <path class="st0" d="M0,68.529v374.941h512V68.529H0z M256.004,380.525c-68.776,0-124.53-55.754-124.53-124.522 c0-68.784,55.754-124.53,124.53-124.53c68.768,0,124.522,55.746,124.522,124.53C380.526,324.771,324.772,380.525,256.004,380.525z"/> <polygon class="st0" points="256.004,235.542 230.7,210.239 276.474,164.481 256.004,144.019 189.777,210.239 235.534,256.004 210.239,281.301 164.489,235.542 144.019,256.004 210.239,322.223 256.004,276.457 281.3,301.754 235.534,347.519 256.004,367.989 322.223,301.754 276.474,256.004 301.761,230.707 347.511,276.457 367.981,256.004 301.761,189.769 "/> </g> </g>
</svg>