<svg xmlns="http://www.w3.org/2000/svg"  viewBox="0 0 40 40" width="40px" height="40px"><path fill="#98ccfd" d="M5.5,38.5V17C5.5,8.869,11.869,2.5,20,2.5S34.5,8.869,34.5,17v21.5H5.5z"/><path fill="#4788c7" d="M20,3c7.85,0,14,6.15,14,14v21H6V17C6,9.15,12.15,3,20,3 M20,2C11.6,2,5,8.64,5,17v22h30V17 C35,8.64,28.4,2,20,2L20,2z"/><path fill="#98ccfd" d="M9.5 18.5H30.5V38.5H9.5z"/><path fill="#4788c7" d="M30,19v19H10V19H30 M31,18H9v21h22V18L31,18z"/><path fill="#98ccfd" d="M26 37H30V39H26zM31 37H34V39H31zM6 37H9V39H6zM10 37H14V39H10z"/><path fill="#b6dcfe" d="M14.5 19.143H25.5V38.5H14.5z"/><path fill="#4788c7" d="M25,19.643V38H15V19.643H25 M26,18.643H14V39h12V18.643L26,18.643z"/><path fill="#b6dcfe" d="M15 37H25V39H15z"/><path fill="#4788c7" d="M30.928,16C31,17.204,31,18.433,31,19.636C31,26.085,26.16,36,20,36c-6.16,0-11-9.915-11-16.364 C9,18.427,9,17.199,9.07,16H8.072C8.001,17.226,8,18.457,8,19.636C8,26.467,13.153,37,20,37s12-10.533,12-17.364 c0-1.179-0.001-2.41-0.072-3.636H30.928z"/><path fill="#dff0fe" d="M9,19.636C9,26.085,13.84,36,20,36s11-9.915,11-16.364S31,6,20,6S9,13.103,9,19.636z"/><path fill="#dff0fe" d="M9,21c-1.043,0-1-2-1-2c0-3.054-2.5-7-2.5-7l-0.037-0.986c3.796,0,6.355,4.058,6.355,4.058L9,21z"/><path fill="#4788c7" d="M10.374 14.836c-.482-.691-1.661-1.965-3.563-2.561C5.635 11.925 5.5 12 5.5 12s-.189-.995-.037-.986c3.929 0 6.355 4.058 6.355 4.058L10.374 14.836zM19.998 7.5c-.274 0-.498-.223-.498-.498V2.031c0-.274.223-.498.498-.498.279 0 .502.223.502.498v4.972c0 .274-.223.498-.498.498H19.998z"/><path fill="#4788c7" d="M20 2.033v4.969l-.002-4.969H20M20.002 1.033h-.005C19.449 1.033 19 1.482 19 2.031v4.971C19 7.551 19.449 8 19.998 8h.005C20.551 8 21 7.551 21 7.002V2.031C21 1.482 20.551 1.033 20.002 1.033L20.002 1.033zM14.998 8.5c-.274 0-.498-.223-.498-.498V3.031c0-.274.223-.498.498-.498.279 0 .502.223.502.498v4.972c0 .274-.223.498-.498.498H14.998z"/><path fill="#4788c7" d="M15 3.033v4.969l-.002-4.969H15M15.002 2.033h-.005C14.449 2.033 14 2.482 14 3.031v4.971C14 8.551 14.449 9 14.998 9h.005C15.551 9 16 8.551 16 8.002V3.031C16 2.482 15.551 2.033 15.002 2.033L15.002 2.033zM24.998 8.5c-.274 0-.498-.223-.498-.498V3.031c0-.274.223-.498.498-.498.279 0 .502.223.502.498v4.972c0 .274-.223.498-.498.498H24.998z"/><path fill="#4788c7" d="M25,3.033v4.969l-0.002-4.969H25 M25.002,2.033h-0.005C24.449,2.033,24,2.482,24,3.031v4.971 C24,8.551,24.449,9,24.998,9h0.005C25.551,9,26,8.551,26,8.002V3.031C26,2.482,25.551,2.033,25.002,2.033L25.002,2.033z"/><path fill="#fff" d="M31 33H34V34H31zM6 33H9V34H6zM6 30H9V31H6zM31 30H34V31H31zM31 36H34V37H31zM6 36H9V37H6z"/><path fill="#dff0fe" d="M31,21c1.043,0,1-2,1-2c0-3.054,2.5-7,2.5-7l0.037-0.986c-3.796,0-6.355,4.058-6.355,4.058L31,21z"/><path fill="#4788c7" d="M29.626 14.836c.482-.691 1.661-1.965 3.563-2.561C34.365 11.925 34.5 12 34.5 12s.189-.995.037-.986c-3.929 0-6.355 4.058-6.355 4.058L29.626 14.836zM16 30.333c0 0 1.389 2.667 4 2.667s4-2.667 4-2.667L21 29h-2L16 30.333z"/><path fill="#fff" d="M23.5,20c0-3.084,2.456-3.476,3.512-3.5l0.102-0.001c1.368,0,2.697,0.646,3.387,1.323V18 c0.007,0.101,0.107,1.338-0.946,2.492c-1.133,1.242-3.22,1.93-6.054,2.001V20z"/><path fill="#4788c7" d="M27.114,16.999c1.141,0,2.246,0.492,2.887,1.042l0,0.012l0.003,0.038 c0.003,0.044,0.074,1.099-0.837,2.083c-0.976,1.054-2.751,1.67-5.168,1.8V20c0-2.549,1.894-2.974,3.024-3L27.114,16.999 M27.114,15.999c-0.038,0-0.076,0-0.114,0.001c-1.914,0.045-4,1.06-4,4v3c8.523,0,8-5,8-5v-0.378 C30.246,16.774,28.702,15.999,27.114,15.999L27.114,15.999z"/><path fill="#98ccfd" d="M27 17A2 2 0 1 0 27 21A2 2 0 1 0 27 17Z"/><path fill="#4788c7" d="M27 18A1 1 0 1 0 27 20A1 1 0 1 0 27 18Z"/><path fill="#b6dcfe" d="M23.5,20c0-3.084,2.456-3.476,3.512-3.5c0.001,0,0.002,0,0.003,0c1.184,0,2.292,0.437,3.039,0.971 c-1.609,0.042-4.692,0.516-6.554,3.318V20z"/><path fill="#4788c7" d="M27.111,16.999c0.409,0,0.814,0.065,1.196,0.175c-1.311,0.267-2.929,0.865-4.262,2.183 c0.293-1.979,1.952-2.333,2.979-2.357L27.111,16.999 M27.111,15.999c-0.037,0-0.074,0-0.111,0.001c-1.914,0.045-4,1.06-4,4v3 c1.471-4.561,5.641-5.032,7.303-5.032C30.737,17.968,31,18,31,18v-0.356C30.246,16.796,28.7,15.999,27.111,15.999L27.111,15.999z"/><path fill="#dff0fe" d="M20,6C10.402,6,9.139,11.901,9,17.644c0.763-0.876,2.358-1.683,4-1.644c1.914,0.045,4,1.059,4,4v5 c0,0,0.455,2,3,2s3-2,3-2v-5c0-2.941,2.086-3.955,4-4c1.642-0.039,3.237,0.768,4,1.644C30.859,11.951,29.585,6,20,6z"/><path fill="#fff" d="M22 6.689c-.317-.06-.648-.109-1-.138V15h1V6.689zM28 9.646C27.7 9.402 27.363 9.19 27 9v3h1V9.646zM19 6.55c-.352.029-.683.077-1 .137V15h1V6.55zM12 9.64V12h1V9C12.637 9.188 12.3 9.398 12 9.64zM15 8H16V13H15zM24 8H25V13H24z"/><path fill="#4788c7" d="M17 25L17 26 20 28 23 26 23 25zM10.033 16.814C10.217 11.467 11.47 7 20 7c8.53 0 9.783 4.467 9.967 9.814.411.246.763.527 1.02.818C30.883 11.785 29.868 6 20 6 10.119 6 9.115 11.731 9.012 17.632 9.269 17.341 9.621 17.06 10.033 16.814zM6.5 12h-1C5.225 12 5 11.775 5 11.5v0C5 11.225 5.225 11 5.5 11h1C6.775 11 7 11.225 7 11.5v0C7 11.775 6.775 12 6.5 12z"/><path fill="#fff" d="M21.5 14L21.5 14c.275 0 .5.225.5.5v1c0 .275-.225.5-.5.5l0 0c-.275 0-.5-.225-.5-.5v-1C21 14.225 21.225 14 21.5 14zM24.5 12L24.5 12c.275 0 .5.225.5.5v1c0 .275-.225.5-.5.5l0 0c-.275 0-.5-.225-.5-.5v-1C24 12.225 24.225 12 24.5 12zM27.5 11L27.5 11c.275 0 .5.225.5.5v1c0 .275-.225.5-.5.5l0 0c-.275 0-.5-.225-.5-.5v-1C27 11.225 27.225 11 27.5 11zM18.5 14L18.5 14c.275 0 .5.225.5.5v1c0 .275-.225.5-.5.5l0 0c-.275 0-.5-.225-.5-.5v-1C18 14.225 18.225 14 18.5 14zM15.5 12L15.5 12c.275 0 .5.225.5.5v1c0 .275-.225.5-.5.5h0c-.275 0-.5-.225-.5-.5v-1C15 12.225 15.225 12 15.5 12zM12.5 11L12.5 11c.275 0 .5.225.5.5v1c0 .275-.225.5-.5.5h0c-.275 0-.5-.225-.5-.5v-1C12 11.225 12.225 11 12.5 11z"/><path fill="#4788c7" d="M33.5,12h1c0.275,0,0.5-0.225,0.5-0.5v0c0-0.275-0.225-0.5-0.5-0.5h-1c-0.275,0-0.5,0.225-0.5,0.5v0 C33,11.775,33.225,12,33.5,12z"/><g><path fill="#fff" d="M16.506,22.494c-2.834-0.071-4.921-0.76-6.054-2.001c-1.053-1.154-0.953-2.391-0.948-2.443 l0.001-0.227c0.689-0.678,2.019-1.324,3.388-1.324l0.102,0.001c1.056,0.024,3.512,0.416,3.512,3.5V22.494z"/><path fill="#4788c7" d="M12.893,16.999L12.983,17c1.129,0.026,3.023,0.451,3.023,3v1.974c-2.417-0.13-4.192-0.746-5.168-1.8 c-0.91-0.983-0.84-2.038-0.838-2.07l0.005-0.052V18.04C10.648,17.49,11.752,16.999,12.893,16.999 M12.893,15.999 c-1.588,0-3.132,0.775-3.886,1.623V18c0,0-0.523,5,8,5v-3c0-2.94-2.086-3.955-4-4C12.968,15.999,12.93,15.999,12.893,15.999 L12.893,15.999z"/></g><g><path fill="#98ccfd" d="M13.006 17A2 2 0 1 0 13.006 21A2 2 0 1 0 13.006 17Z"/></g><g><path fill="#4788c7" d="M13.006 18A1 1 0 1 0 13.006 20A1 1 0 1 0 13.006 18Z"/></g><g><path fill="#b6dcfe" d="M16.506,20.789c-1.862-2.803-4.946-3.276-6.555-3.318c0.743-0.535,1.835-0.973,2.944-0.973 c1.154,0.026,3.61,0.417,3.61,3.501V20.789z"/><path fill="#4788c7" d="M12.896,16.999L12.983,17c1.027,0.024,2.685,0.378,2.979,2.357 c-1.333-1.318-2.951-1.916-4.262-2.183C12.081,17.064,12.487,16.999,12.896,16.999 M12.896,15.999 c-1.589,0-3.135,0.797-3.889,1.645V18c0,0,0.263-0.032,0.697-0.032c1.662,0,5.833,0.471,7.303,5.032v-3c0-2.94-2.086-3.955-4-4 C12.969,15.999,12.932,15.999,12.896,15.999L12.896,15.999z"/></g></svg>